<mxfile host="app.diagrams.net" agent="Mozilla/5.0 (Windows NT 10.0; Win64; x64) AppleWebKit/537.36 (KHTML, like Gecko) Chrome/141.0.0.0 Safari/537.36" version="28.2.8">
  <diagram name="PÃ¡gina-1" id="XTlsCB1aqoiEbF0G4ipM">
    <mxGraphModel dx="926" dy="388" grid="1" gridSize="10" guides="1" tooltips="1" connect="1" arrows="1" fold="1" page="1" pageScale="1" pageWidth="827" pageHeight="1169" math="0" shadow="0">
      <root>
        <mxCell id="0" />
        <mxCell id="1" parent="0" />
        <mxCell id="P_pArtIc2siClAsg0JoR-1" value="&lt;p style=&quot;margin:0px;margin-top:4px;text-align:center;&quot;&gt;&lt;b&gt;Pregunta&lt;/b&gt;&lt;/p&gt;&lt;hr size=&quot;1&quot; style=&quot;border-style:solid;&quot;&gt;&lt;p style=&quot;margin:0px;margin-left:4px;&quot;&gt;- enunciado: String&lt;/p&gt;&lt;p style=&quot;margin:0px;margin-left:4px;&quot;&gt;- respuesta: String&lt;/p&gt;&lt;hr size=&quot;1&quot; style=&quot;border-style:solid;&quot;&gt;&lt;p style=&quot;margin:0px;margin-left:4px;&quot;&gt;+ esCorrecta(String): boolean&lt;/p&gt;" style="verticalAlign=top;align=left;overflow=fill;html=1;whiteSpace=wrap;" vertex="1" parent="1">
          <mxGeometry x="540" y="210" width="170" height="90" as="geometry" />
        </mxCell>
        <mxCell id="P_pArtIc2siClAsg0JoR-2" value="&lt;p style=&quot;margin:0px;margin-top:4px;text-align:center;&quot;&gt;&lt;b&gt;Servidor&lt;/b&gt;&lt;/p&gt;&lt;hr size=&quot;1&quot; style=&quot;border-style:solid;&quot;&gt;&lt;p style=&quot;margin:0px;margin-left:4px;&quot;&gt;&lt;br&gt;&lt;/p&gt;&lt;hr size=&quot;1&quot; style=&quot;border-style:solid;&quot;&gt;&lt;p style=&quot;margin:0px;margin-left:4px;&quot;&gt;+ iniciarPartida(): void&lt;/p&gt;&lt;p style=&quot;margin:0px;margin-left:4px;&quot;&gt;+ suscribir(Jugador): void&lt;/p&gt;&lt;p style=&quot;margin:0px;margin-left:4px;&quot;&gt;+ notificar(Pregunta): void&lt;/p&gt;&lt;p style=&quot;margin:0px;margin-left:4px;&quot;&gt;+ solicitarParticipacion(Jugador): void&lt;/p&gt;" style="verticalAlign=top;align=left;overflow=fill;html=1;whiteSpace=wrap;" vertex="1" parent="1">
          <mxGeometry x="320" y="190" width="210" height="120" as="geometry" />
        </mxCell>
        <mxCell id="P_pArtIc2siClAsg0JoR-3" value="&lt;p style=&quot;margin:0px;margin-top:4px;text-align:center;&quot;&gt;&lt;b&gt;Jugador&lt;/b&gt;&lt;/p&gt;&lt;hr size=&quot;1&quot; style=&quot;border-style:solid;&quot;&gt;&lt;p style=&quot;margin:0px;margin-left:4px;&quot;&gt;- server: Servidor&lt;/p&gt;&lt;hr size=&quot;1&quot; style=&quot;border-style:solid;&quot;&gt;&lt;p style=&quot;margin:0px;margin-left:4px;&quot;&gt;+ update(Pregunta): void&lt;/p&gt;&lt;p style=&quot;margin:0px;margin-left:4px;&quot;&gt;+ solicitarParticipacion()&lt;span style=&quot;background-color: transparent; color: light-dark(rgb(0, 0, 0), rgb(255, 255, 255));&quot;&gt;:void&lt;/span&gt;&lt;/p&gt;&lt;p style=&quot;margin:0px;margin-left:4px;&quot;&gt;+ enviarRespuesta(Pregunta, String): void&lt;/p&gt;" style="verticalAlign=top;align=left;overflow=fill;html=1;whiteSpace=wrap;" vertex="1" parent="1">
          <mxGeometry x="10" y="290" width="230" height="110" as="geometry" />
        </mxCell>
        <mxCell id="P_pArtIc2siClAsg0JoR-4" value="jugadoresEsperando" style="endArrow=block;endFill=1;html=1;edgeStyle=orthogonalEdgeStyle;align=left;verticalAlign=top;rounded=0;exitX=0;exitY=0.5;exitDx=0;exitDy=0;entryX=0.75;entryY=0;entryDx=0;entryDy=0;" edge="1" parent="1" source="P_pArtIc2siClAsg0JoR-2" target="P_pArtIc2siClAsg0JoR-3">
          <mxGeometry x="0.3714" y="-25" relative="1" as="geometry">
            <mxPoint x="330" y="250" as="sourcePoint" />
            <mxPoint x="490" y="250" as="targetPoint" />
            <mxPoint as="offset" />
          </mxGeometry>
        </mxCell>
        <mxCell id="P_pArtIc2siClAsg0JoR-5" value="*" style="edgeLabel;resizable=0;html=1;align=left;verticalAlign=bottom;" connectable="0" vertex="1" parent="P_pArtIc2siClAsg0JoR-4">
          <mxGeometry x="-1" relative="1" as="geometry">
            <mxPoint x="-137" y="35" as="offset" />
          </mxGeometry>
        </mxCell>
        <mxCell id="P_pArtIc2siClAsg0JoR-6" value="&lt;p style=&quot;margin:0px;margin-top:4px;text-align:center;&quot;&gt;&lt;b&gt;Partida&lt;/b&gt;&lt;/p&gt;&lt;hr size=&quot;1&quot; style=&quot;border-style:solid;&quot;&gt;&lt;p style=&quot;margin:0px;margin-left:4px;&quot;&gt;&lt;span style=&quot;background-color: transparent; color: light-dark(rgb(0, 0, 0), rgb(255, 255, 255));&quot;&gt;- leaderBoard: Map&amp;lt;Jugador, Integer&amp;gt;&lt;/span&gt;&lt;/p&gt;&lt;hr size=&quot;1&quot; style=&quot;border-style:solid;&quot;&gt;&lt;p style=&quot;margin:0px;margin-left:4px;&quot;&gt;+ registrarJugador(Jugador): void&lt;/p&gt;&lt;p style=&quot;margin:0px;margin-left:4px;&quot;&gt;+ obtenerPreguntas(): List&amp;lt;String&amp;gt;&lt;/p&gt;&lt;p style=&quot;margin:0px;margin-left:4px;&quot;&gt;+ registrarRespuestaCorrecta(Jugador): void&lt;/p&gt;&lt;p style=&quot;margin:0px;margin-left:4px;&quot;&gt;+ esUltimaPregunta(Pregunta): boolean&lt;/p&gt;&lt;p style=&quot;margin:0px;margin-left:4px;&quot;&gt;+ finalizar(Jugador): void&lt;/p&gt;" style="verticalAlign=top;align=left;overflow=fill;html=1;whiteSpace=wrap;" vertex="1" parent="1">
          <mxGeometry x="90" y="40" width="250" height="130" as="geometry" />
        </mxCell>
        <mxCell id="P_pArtIc2siClAsg0JoR-7" value="jugadores" style="endArrow=block;endFill=1;html=1;edgeStyle=orthogonalEdgeStyle;align=left;verticalAlign=top;rounded=0;exitX=0.119;exitY=0.996;exitDx=0;exitDy=0;entryX=0.478;entryY=0.004;entryDx=0;entryDy=0;exitPerimeter=0;entryPerimeter=0;" edge="1" parent="1" source="P_pArtIc2siClAsg0JoR-6" target="P_pArtIc2siClAsg0JoR-3">
          <mxGeometry x="-0.499" y="-51" relative="1" as="geometry">
            <mxPoint x="330" y="180" as="sourcePoint" />
            <mxPoint x="490" y="180" as="targetPoint" />
            <mxPoint as="offset" />
          </mxGeometry>
        </mxCell>
        <mxCell id="P_pArtIc2siClAsg0JoR-8" value="*" style="edgeLabel;resizable=0;html=1;align=left;verticalAlign=bottom;" connectable="0" vertex="1" parent="P_pArtIc2siClAsg0JoR-7">
          <mxGeometry x="-1" relative="1" as="geometry">
            <mxPoint y="110" as="offset" />
          </mxGeometry>
        </mxCell>
        <mxCell id="P_pArtIc2siClAsg0JoR-9" value="preguntas" style="endArrow=block;endFill=1;html=1;edgeStyle=orthogonalEdgeStyle;align=left;verticalAlign=top;rounded=0;entryX=0.5;entryY=0;entryDx=0;entryDy=0;" edge="1" parent="1" target="P_pArtIc2siClAsg0JoR-1">
          <mxGeometry x="-0.9488" y="25" relative="1" as="geometry">
            <mxPoint x="340" y="104.58" as="sourcePoint" />
            <mxPoint x="500" y="104.58" as="targetPoint" />
            <mxPoint as="offset" />
          </mxGeometry>
        </mxCell>
        <mxCell id="P_pArtIc2siClAsg0JoR-10" value="*" style="edgeLabel;resizable=0;html=1;align=left;verticalAlign=bottom;" connectable="0" vertex="1" parent="P_pArtIc2siClAsg0JoR-9">
          <mxGeometry x="-1" relative="1" as="geometry">
            <mxPoint x="285" y="95" as="offset" />
          </mxGeometry>
        </mxCell>
        <mxCell id="P_pArtIc2siClAsg0JoR-11" value="preguntas" style="endArrow=block;endFill=1;html=1;edgeStyle=orthogonalEdgeStyle;align=left;verticalAlign=top;rounded=0;entryX=0.5;entryY=1;entryDx=0;entryDy=0;" edge="1" parent="1" target="P_pArtIc2siClAsg0JoR-1">
          <mxGeometry x="-1" relative="1" as="geometry">
            <mxPoint x="240" y="340" as="sourcePoint" />
            <mxPoint x="390" y="340" as="targetPoint" />
          </mxGeometry>
        </mxCell>
        <mxCell id="P_pArtIc2siClAsg0JoR-12" value="*" style="edgeLabel;resizable=0;html=1;align=left;verticalAlign=bottom;" connectable="0" vertex="1" parent="P_pArtIc2siClAsg0JoR-11">
          <mxGeometry x="-1" relative="1" as="geometry">
            <mxPoint x="387" y="-15" as="offset" />
          </mxGeometry>
        </mxCell>
        <mxCell id="P_pArtIc2siClAsg0JoR-13" value="preguntaActual" style="endArrow=block;endFill=1;html=1;edgeStyle=orthogonalEdgeStyle;align=left;verticalAlign=top;rounded=0;exitX=0.5;exitY=0;exitDx=0;exitDy=0;entryX=1;entryY=0.75;entryDx=0;entryDy=0;" edge="1" parent="1" target="P_pArtIc2siClAsg0JoR-6">
          <mxGeometry relative="1" as="geometry">
            <mxPoint x="432" y="190" as="sourcePoint" />
            <mxPoint x="347" y="137.5" as="targetPoint" />
          </mxGeometry>
        </mxCell>
        <mxCell id="P_pArtIc2siClAsg0JoR-14" value="1" style="edgeLabel;resizable=0;html=1;align=left;verticalAlign=bottom;" connectable="0" vertex="1" parent="P_pArtIc2siClAsg0JoR-13">
          <mxGeometry x="-1" relative="1" as="geometry">
            <mxPoint x="-84" y="-36" as="offset" />
          </mxGeometry>
        </mxCell>
      </root>
    </mxGraphModel>
  </diagram>
</mxfile>
